<?xml version="1.0" encoding="utf-8"?>
<!-- Generator: Adobe Illustrator 24.2.1, SVG Export Plug-In . SVG Version: 6.00 Build 0)  -->
<svg version="1.1" id="Layer_1" xmlns="http://www.w3.org/2000/svg" xmlns:xlink="http://www.w3.org/1999/xlink" x="0px" y="0px"
	 viewBox="0 0 840 197" style="enable-background:new 0 0 840 197;" xml:space="preserve">
<style type="text/css">
	.st0{fill:#1D1D1B;}
	.st1{fill:#E1251B;}
</style>
<g>
	<path class="st0" d="M587.4,5.4v31.7h-6.2V5.4H569V0h30.6v5.4H587.4z"/>
	<path class="st0" d="M600.8,26.9V10.6h6v15.7c0,4.8,2,6.6,5.4,6.6c3.4,0,6-2.6,6-7.6V10.6h6v26.5h-5.6v-3.4h-0.1
		c-1.7,2.4-4.4,4.1-7.9,4.1C604.5,37.8,600.8,34.1,600.8,26.9z M604.6,5.7V0h5.3v5.7H604.6z M615.3,5.7V0h5.3v5.7H615.3z"/>
	<path class="st0" d="M647.2,10.5v5.3c-0.7-0.2-1.4-0.2-2.1-0.2c-4.8,0-7.4,3-7.4,8.5v13h-6V10.6h5.5v3.9h0.1
		c1.8-2.9,4.3-4.3,7.6-4.3C645.7,10.3,646.5,10.4,647.2,10.5z"/>
	<path class="st0" d="M667.8,37.2l-10.3-12.8h-0.1v12.8h-6V0h6v21.5h0.1l9.7-10.9h6.9l-11,12.1l12.2,14.4H667.8z"/>
	<path class="st0" d="M678.2,5.7V0h6v5.7H678.2z M678.2,37.2V10.6h6v26.5H678.2z"/>
	<path class="st0" d="M703.5,38.3c-2.5,6.7-5.4,8.8-11.6,8.8c-1.2,0-2.2-0.2-3-0.4v-4.8c0.7,0.2,1.6,0.4,2.5,0.4
		c3.2,0,4.6-1.2,5.9-4.9l-9.7-26.7h6.4l6.6,19.7h0.1l6.8-19.7h6.2L703.5,38.3z"/>
	<path class="st0" d="M734,29.2h6.1c-1,4.7-5.3,8.8-12.2,8.8c-8.1,0-12.8-5.8-12.8-14.4c0-7.8,4.7-13.7,12.7-13.7
		c6,0,10.4,3.5,11.9,9c0.5,1.7,0.7,3.7,0.7,6.2H721c0.2,6,3.2,8.5,6.9,8.5C731.3,33.5,733.5,31.7,734,29.2z M721.1,21.2h13.4
		c-0.4-4.6-3.1-6.9-6.7-6.9C724.2,14.3,721.6,16.6,721.1,21.2z"/>
	<path class="st0" d="M601.3,85.7c0,9.6-5.1,14.8-14.2,14.8s-14.3-5.2-14.3-14.8V62.6h6.3v22.9c0,6.3,2.9,9.4,8,9.4s8-3.2,8-9.4
		V62.6h6.2V85.7z"/>
	<path class="st0" d="M614.2,94.9L614.2,94.9l14.8,0.1v4.8h-22v-5l14.3-16.7V78h-13.8v-4.8h21v5L614.2,94.9z"/>
	<path class="st0" d="M655.1,82.9v9.9c0,3.1,0.3,5.3,0.7,7h-5.4c-0.3-1.1-0.4-2.4-0.4-3.7h-0.1c-1.9,2.8-4.9,4.3-8.9,4.3
		c-5.5,0-9-3.3-9-7.9c0-4.3,2.6-7.2,10.2-8.3c2.1-0.4,5.3-0.7,7.1-0.8v-1c0-3.9-2.1-5.5-5.2-5.5c-3.3,0-5.1,1.8-5.2,4.6h-5.8
		c0.3-5,3.9-9,11.1-9C651.2,72.5,655.1,75.9,655.1,82.9z M649.4,87.2c-1.8,0.1-4.3,0.4-6.1,0.7c-3.8,0.6-5.2,1.8-5.2,4.2
		c0,2.3,1.7,3.9,4.7,3.9c1.8,0,3.6-0.6,4.8-1.8c1.4-1.5,1.8-2.9,1.8-5.7L649.4,87.2L649.4,87.2z"/>
	<path class="st0" d="M673.2,100.9c-2.5,6.7-5.4,8.8-11.6,8.8c-1.2,0-2.2-0.2-3-0.4v-4.8c0.7,0.2,1.6,0.4,2.5,0.4
		c3.2,0,4.6-1.2,5.9-4.8l-9.7-26.7h6.4l6.6,19.7h0.1l6.8-19.7h6.2L673.2,100.9z"/>
	<path class="st0" d="M705.3,89.7l-3.4,10.1h-6.6l13.5-37.1h8.4l13.5,37.1h-6.6l-3.4-10.1H705.3z M717.9,81.3
		c-1.7-5-3.3-9.8-4.8-14.8H713c-1.5,5-3,9.8-4.8,14.8l-1,2.9h11.6L717.9,81.3z"/>
	<path class="st0" d="M740.9,100.8c0,6.4-3.4,8.9-8.3,8.9c-1.1,0-2.1-0.2-3-0.4v-4.4c0.5,0.1,0.9,0.2,1.5,0.2c2.6,0,4-1.2,4-5V73.3
		h6L740.9,100.8L740.9,100.8z M735,68.3v-5.7h6v5.7H735z"/>
	<path class="st0" d="M769.4,82.9v9.9c0,3.1,0.3,5.3,0.7,7h-5.4c-0.3-1.1-0.4-2.4-0.4-3.7h-0.1c-1.9,2.8-4.9,4.3-8.9,4.3
		c-5.5,0-9-3.3-9-7.9c0-4.3,2.6-7.2,10.2-8.3c2.1-0.4,5.3-0.7,7.2-0.8v-1c0-3.9-2.1-5.5-5.2-5.5c-3.3,0-5.1,1.8-5.2,4.6h-5.8
		c0.3-5,3.9-9,11.1-9C765.5,72.5,769.4,75.9,769.4,82.9z M763.6,87.2c-1.8,0.1-4.3,0.4-6.1,0.7c-3.8,0.6-5.2,1.8-5.2,4.2
		c0,2.3,1.7,3.9,4.7,3.9c1.8,0,3.6-0.6,4.8-1.8c1.4-1.5,1.8-2.9,1.8-5.7L763.6,87.2L763.6,87.2z"/>
	<path class="st0" d="M800,83.5v16.2h-6V84.1c0-4.8-2-6.6-5.4-6.6c-3.4,0-6,2.6-6,7.6v14.7h-6V73.3h5.6v3.4h0.1
		c1.7-2.4,4.4-4.1,7.9-4.1C796.3,72.6,800,76.3,800,83.5z"/>
	<path class="st0" d="M827.2,81.5h-5.7c0-3.2-1.9-4.7-5.1-4.7c-2.8,0-4.4,1.2-4.4,3.1c0,2.3,1.8,2.8,6,3.8c4.8,1.3,10,2.4,10,8.7
		c0,4.8-4.3,8.1-11.1,8.1c-7.1,0-11.4-3.2-11.5-9.5h6c0,3.2,2,5.1,5.5,5.1c3,0,4.8-1.3,4.8-3.3c0-2.7-2.1-3.2-6.7-4.4
		c-4.4-1.1-9.1-2.1-9.1-8c0-4.7,4.2-7.9,10.4-7.9C823.2,72.5,827.2,75.6,827.2,81.5z"/>
	<path class="st0" d="M833.9,99.8V73.3h6v26.5H833.9z"/>
</g>
<g>
	<path class="st1" d="M321.2,114c-3.8,25.7-21.1,40.7-48.1,40.7c-30.6,0-48.9-19.3-48.9-51.6V0.6H0v47.2h59.2v142.1h59V47.8h46.9
		V109c0,55.5,39.3,87.4,107.9,87.4c58.3,0,95.4-23,105.3-64l-55.9-18l-0.4-0.1L321.2,114z"/>
	<path class="st1" d="M430.4,0H321.2v114l59.5-19.4V32.5l36.5,50.2l59-19.2L430.4,0z"/>
	<path class="st1" d="M499.1,94.7l-22.8-31.1l-36.5,50.2l54.9,75.5h73.2L499.1,94.7z"/>
</g>
</svg>
